<?xml version="1.0" standalone="no"?>
<!DOCTYPE svg PUBLIC "-//W3C//DTD SVG 20010904//EN"
 "http://www.w3.org/TR/2001/REC-SVG-20010904/DTD/svg10.dtd">
<svg version="1.0" xmlns="http://www.w3.org/2000/svg"
 width="256.000000pt" height="256.000000pt" viewBox="0 0 256.000000 256.000000"
 preserveAspectRatio="xMidYMid meet">
<metadata>
Created by potrace 1.16, written by Peter Selinger 2001-2019
</metadata>
<g transform="translate(0.000000,256.000000) scale(0.100000,-0.100000)"
fill="#000000" stroke="none">
<path d="M1135 2554 c-316 -48 -543 -160 -756 -373 -188 -188 -299 -391 -355
-651 -26 -119 -26 -381 0 -500 56 -260 167 -463 355 -651 188 -188 391 -299
651 -355 119 -26 381 -26 500 0 260 56 463 167 651 355 188 188 299 391 355
651 26 119 26 381 0 500 -56 260 -167 463 -355 651 -185 185 -378 292 -631
350 -83 19 -344 34 -415 23z m216 -773 c87 -23 150 -49 210 -87 24 -16 80 -42
124 -59 45 -17 113 -52 151 -78 122 -81 274 -259 274 -323 0 -64 -127 -225
-244 -308 -205 -146 -411 -176 -654 -97 -138 45 -228 97 -324 189 l-37 35 -63
-59 c-152 -141 -277 -234 -316 -234 -24 0 -25 1 -18 62 6 56 43 178 107 344
l23 62 -46 123 c-55 145 -88 260 -88 306 0 28 4 33 24 33 13 0 50 -18 82 -39
56 -38 243 -199 273 -234 12 -16 18 -14 65 26 44 38 141 106 202 143 16 9 16
16 5 75 -7 35 -15 73 -17 85 -3 12 2 28 11 38 23 23 160 22 256 -3z"/>
<path d="M1660 1467 c-13 -7 -35 -28 -48 -47 -54 -79 5 -190 100 -190 49 0
100 27 119 62 18 33 15 99 -6 131 -34 52 -109 72 -165 44z"/>
</g>
</svg>
